<?xml version="1.0" standalone="no"?>
<!DOCTYPE svg PUBLIC "-//W3C//DTD SVG 20010904//EN"
 "http://www.w3.org/TR/2001/REC-SVG-20010904/DTD/svg10.dtd">
<svg version="1.0" xmlns="http://www.w3.org/2000/svg"
 width="912.000000pt" height="912.000000pt" viewBox="0 0 912.000000 912.000000"
 preserveAspectRatio="xMidYMid meet">
<metadata>
Created by potrace 1.11, written by Peter Selinger 2001-2013
</metadata>
<g transform="translate(0.000000,912.000000) scale(0.100000,-0.100000)"
fill="#000000" stroke="none">
<path d="M2577 6124 c-1 -1 -62 -4 -135 -8 -74 -3 -137 -8 -140 -10 -4 -2 -34
-7 -67 -10 -199 -23 -456 -100 -640 -193 -350 -177 -721 -509 -931 -833 -16
-25 -31 -47 -34 -50 -3 -3 -12 -16 -20 -30 -8 -14 -38 -64 -67 -111 -69 -114
-169 -315 -231 -464 -53 -128 -210 -587 -228 -670 -1 -5 -19 -73 -38 -150 -20
-77 -36 -143 -36 -147 0 -3 19 -11 42 -16 24 -6 108 -29 188 -52 80 -23 170
-48 200 -56 30 -8 102 -29 160 -46 58 -16 112 -32 120 -33 8 -2 71 -20 140
-40 69 -21 141 -41 160 -45 19 -5 78 -20 129 -35 90 -25 96 -26 108 -9 7 10
13 23 13 29 0 15 106 331 155 460 35 93 131 304 144 315 3 3 16 23 28 45 46
84 150 220 229 300 233 236 431 318 754 310 126 -4 188 -11 320 -36 94 -18
262 -69 325 -99 11 -5 54 -24 95 -43 73 -33 183 -97 460 -267 286 -175 874
-526 1003 -599 131 -74 173 -96 408 -215 135 -68 281 -138 325 -156 43 -17 88
-36 99 -41 82 -36 326 -99 475 -123 117 -18 670 -22 781 -6 434 64 759 212
1119 510 195 161 359 346 514 580 180 270 299 519 411 856 41 125 123 396 130
434 2 8 8 34 14 58 7 24 20 82 30 128 l18 86 -21 8 c-11 5 -97 30 -191 56 -93
25 -197 54 -230 64 -33 10 -94 27 -135 38 -41 12 -185 52 -320 90 -320 90
-340 95 -344 91 -4 -5 -67 -198 -71 -219 -3 -15 -66 -191 -113 -315 -60 -159
-169 -358 -269 -492 -120 -160 -313 -322 -455 -381 -233 -97 -592 -89 -938 21
-101 33 -272 109 -365 164 -87 51 -135 80 -180 108 -27 18 -111 69 -185 114
-74 45 -142 86 -150 91 -209 128 -805 479 -920 542 -197 107 -511 265 -615
308 -204 84 -422 145 -595 165 -25 3 -54 8 -65 10 -41 8 -360 25 -368 19z"/>
</g>
</svg>
